<?xml version="1.0" encoding="UTF-8" standalone="no"?>
<svg
   xmlns:dc="http://purl.org/dc/elements/1.1/"
   xmlns:cc="http://creativecommons.org/ns#"
   xmlns:rdf="http://www.w3.org/1999/02/22-rdf-syntax-ns#"
   xmlns:svg="http://www.w3.org/2000/svg"
   xmlns="http://www.w3.org/2000/svg"
   xmlns:sodipodi="http://sodipodi.sourceforge.net/DTD/sodipodi-0.dtd"
   xmlns:inkscape="http://www.inkscape.org/namespaces/inkscape"
   class="marks"
   width="659"
   height="369"
   viewBox="0 0 659 369"
   version="1.1"
   id="svg5627"
   sodipodi:docname="default.svg"
   inkscape:version="0.92.2 (5c3e80d, 2017-08-06)">
  <metadata
     id="metadata5633">
    <rdf:RDF>
      <cc:Work
         rdf:about="">
        <dc:format>image/svg+xml</dc:format>
        <dc:type
           rdf:resource="http://purl.org/dc/dcmitype/StillImage" />
      </cc:Work>
    </rdf:RDF>
  </metadata>
  <defs
     id="defs5631" />
  <sodipodi:namedview
     pagecolor="#ffffff"
     bordercolor="#666666"
     borderopacity="1"
     objecttolerance="10"
     gridtolerance="10"
     guidetolerance="10"
     inkscape:pageopacity="0"
     inkscape:pageshadow="2"
     inkscape:window-width="2560"
     inkscape:window-height="1378"
     id="namedview5629"
     showgrid="false"
     inkscape:zoom="2.2352049"
     inkscape:cx="287.44569"
     inkscape:cy="184.5"
     inkscape:window-x="-8"
     inkscape:window-y="-8"
     inkscape:window-maximized="1"
     inkscape:current-layer="svg5627" />
  <g
     transform="translate(52,29)"
     id="g5625">
    <g
       class="mark-group role-frame root"
       id="g5623">
      <g
         transform="translate(0,0)"
         id="g5621">
        <path
           class="background"
           d="M0.5,0.5h600v300h-600Z"
           style="fill:none;stroke:none"
           id="path5357" />
        <g
           id="g5619">
          <g
             class="mark-group role-axis"
             id="g5409">
            <g
               transform="translate(0.5,300.5)"
               id="g5407">
              <path
                 class="background"
                 d="M0,0h0v0h0Z"
                 style="pointer-events: none; fill: none;"
                 id="path5359" />
              <g
                 id="g5405">
                <g
                   class="mark-rule role-axis-grid"
                   style="pointer-events: none;"
                   id="g5403">
                  <line
                     transform="translate(0,-300)"
                     x2="0"
                     y2="300"
                     style="fill: none; stroke: rgb(221, 221, 221); stroke-width: 1; opacity: 1;"
                     id="line5361" />
                  <line
                     transform="translate(30,-300)"
                     x2="0"
                     y2="300"
                     style="fill: none; stroke: rgb(221, 221, 221); stroke-width: 1; opacity: 1;"
                     id="line5363" />
                  <line
                     transform="translate(60,-300)"
                     x2="0"
                     y2="300"
                     style="fill: none; stroke: rgb(221, 221, 221); stroke-width: 1; opacity: 1;"
                     id="line5365" />
                  <line
                     transform="translate(90,-300)"
                     x2="0"
                     y2="300"
                     style="fill: none; stroke: rgb(221, 221, 221); stroke-width: 1; opacity: 1;"
                     id="line5367" />
                  <line
                     transform="translate(120,-300)"
                     x2="0"
                     y2="300"
                     style="fill: none; stroke: rgb(221, 221, 221); stroke-width: 1; opacity: 1;"
                     id="line5369" />
                  <line
                     transform="translate(150,-300)"
                     x2="0"
                     y2="300"
                     style="fill: none; stroke: rgb(221, 221, 221); stroke-width: 1; opacity: 1;"
                     id="line5371" />
                  <line
                     transform="translate(180,-300)"
                     x2="0"
                     y2="300"
                     style="fill: none; stroke: rgb(221, 221, 221); stroke-width: 1; opacity: 1;"
                     id="line5373" />
                  <line
                     transform="translate(210,-300)"
                     x2="0"
                     y2="300"
                     style="fill: none; stroke: rgb(221, 221, 221); stroke-width: 1; opacity: 1;"
                     id="line5375" />
                  <line
                     transform="translate(240,-300)"
                     x2="0"
                     y2="300"
                     style="fill: none; stroke: rgb(221, 221, 221); stroke-width: 1; opacity: 1;"
                     id="line5377" />
                  <line
                     transform="translate(270,-300)"
                     x2="0"
                     y2="300"
                     style="fill: none; stroke: rgb(221, 221, 221); stroke-width: 1; opacity: 1;"
                     id="line5379" />
                  <line
                     transform="translate(300,-300)"
                     x2="0"
                     y2="300"
                     style="fill: none; stroke: rgb(221, 221, 221); stroke-width: 1; opacity: 1;"
                     id="line5381" />
                  <line
                     transform="translate(330,-300)"
                     x2="0"
                     y2="300"
                     style="fill: none; stroke: rgb(221, 221, 221); stroke-width: 1; opacity: 1;"
                     id="line5383" />
                  <line
                     transform="translate(360,-300)"
                     x2="0"
                     y2="300"
                     style="fill: none; stroke: rgb(221, 221, 221); stroke-width: 1; opacity: 1;"
                     id="line5385" />
                  <line
                     transform="translate(390,-300)"
                     x2="0"
                     y2="300"
                     style="fill: none; stroke: rgb(221, 221, 221); stroke-width: 1; opacity: 1;"
                     id="line5387" />
                  <line
                     transform="translate(420,-300)"
                     x2="0"
                     y2="300"
                     style="fill: none; stroke: rgb(221, 221, 221); stroke-width: 1; opacity: 1;"
                     id="line5389" />
                  <line
                     transform="translate(450,-300)"
                     x2="0"
                     y2="300"
                     style="fill: none; stroke: rgb(221, 221, 221); stroke-width: 1; opacity: 1;"
                     id="line5391" />
                  <line
                     transform="translate(480,-300)"
                     x2="0"
                     y2="300"
                     style="fill: none; stroke: rgb(221, 221, 221); stroke-width: 1; opacity: 1;"
                     id="line5393" />
                  <line
                     transform="translate(510,-300)"
                     x2="0"
                     y2="300"
                     style="fill: none; stroke: rgb(221, 221, 221); stroke-width: 1; opacity: 1;"
                     id="line5395" />
                  <line
                     transform="translate(540,-300)"
                     x2="0"
                     y2="300"
                     style="fill: none; stroke: rgb(221, 221, 221); stroke-width: 1; opacity: 1;"
                     id="line5397" />
                  <line
                     transform="translate(570,-300)"
                     x2="0"
                     y2="300"
                     style="fill: none; stroke: rgb(221, 221, 221); stroke-width: 1; opacity: 1;"
                     id="line5399" />
                  <line
                     transform="translate(600,-300)"
                     x2="0"
                     y2="300"
                     style="fill: none; stroke: rgb(221, 221, 221); stroke-width: 1; opacity: 1;"
                     id="line5401" />
                </g>
              </g>
            </g>
          </g>
          <g
             class="mark-group role-axis"
             id="g5441">
            <g
               transform="translate(0.5,0.5)"
               id="g5439">
              <path
                 class="background"
                 d="M0,0h0v0h0Z"
                 style="pointer-events: none; fill: none;"
                 id="path5411" />
              <g
                 id="g5437">
                <g
                   class="mark-rule role-axis-grid"
                   style="pointer-events: none;"
                   id="g5435">
                  <line
                     transform="translate(0,300)"
                     x2="600"
                     y2="0"
                     style="fill: none; stroke: rgb(221, 221, 221); stroke-width: 1; opacity: 1;"
                     id="line5413" />
                  <line
                     transform="translate(0,270)"
                     x2="600"
                     y2="0"
                     style="fill: none; stroke: rgb(221, 221, 221); stroke-width: 1; opacity: 1;"
                     id="line5415" />
                  <line
                     transform="translate(0,240)"
                     x2="600"
                     y2="0"
                     style="fill: none; stroke: rgb(221, 221, 221); stroke-width: 1; opacity: 1;"
                     id="line5417" />
                  <line
                     transform="translate(0,210)"
                     x2="600"
                     y2="0"
                     style="fill: none; stroke: rgb(221, 221, 221); stroke-width: 1; opacity: 1;"
                     id="line5419" />
                  <line
                     transform="translate(0,180)"
                     x2="600"
                     y2="0"
                     style="fill: none; stroke: rgb(221, 221, 221); stroke-width: 1; opacity: 1;"
                     id="line5421" />
                  <line
                     transform="translate(0,150)"
                     x2="600"
                     y2="0"
                     style="fill: none; stroke: rgb(221, 221, 221); stroke-width: 1; opacity: 1;"
                     id="line5423" />
                  <line
                     transform="translate(0,120)"
                     x2="600"
                     y2="0"
                     style="fill: none; stroke: rgb(221, 221, 221); stroke-width: 1; opacity: 1;"
                     id="line5425" />
                  <line
                     transform="translate(0,90)"
                     x2="600"
                     y2="0"
                     style="fill: none; stroke: rgb(221, 221, 221); stroke-width: 1; opacity: 1;"
                     id="line5427" />
                  <line
                     transform="translate(0,60)"
                     x2="600"
                     y2="0"
                     style="fill: none; stroke: rgb(221, 221, 221); stroke-width: 1; opacity: 1;"
                     id="line5429" />
                  <line
                     transform="translate(0,30)"
                     x2="600"
                     y2="0"
                     style="fill: none; stroke: rgb(221, 221, 221); stroke-width: 1; opacity: 1;"
                     id="line5431" />
                  <line
                     transform="translate(0,0)"
                     x2="600"
                     y2="0"
                     style="fill: none; stroke: rgb(221, 221, 221); stroke-width: 1; opacity: 1;"
                     id="line5433" />
                </g>
              </g>
            </g>
          </g>
          <g
             class="mark-line role-mark marks"
             id="g5445">
            <path
               d="M599.999999999999,275.86072936147093L599.499999999999,277.11371995019357C598.999999999999,278.36671053891615,597.999999999999,280.87269171636143,596.999999999999,283.15656029206883C595.9999999999989,285.4404288677761,594.9999999999989,287.50218484174565,593.999999999999,289.33152802189414C592.999999999999,291.1608712020427,591.999999999999,292.75780158837034,590.999999999999,294.1143411806045C589.999999999999,295.47088077283865,588.999999999999,296.5870295709793,587.999999999999,297.45721148010585C586.999999999999,298.3273933892324,585.999999999999,298.9516084093448,584.999999999999,299.32673806537156C583.999999999999,299.7018677213984,582.999999999999,299.8279120133396,581.999999999999,299.70424124474505C580.999999999999,299.5805704761505,579.999999999999,299.2071846470202,578.999999999999,298.585949131244C577.999999999999,297.9647136154677,576.9999999999991,297.0956284130455,575.9999999999991,295.9830353300081C574.9999999999991,294.87044224697064,573.999999999999,293.51434128331795,572.999999999999,291.9215072953306C571.999999999999,290.3286733073433,570.999999999999,288.49910629502136,569.999999999999,286.44194647277124C568.999999999999,284.3847866505211,567.999999999999,282.1000340183427,566.999999999999,279.59910282276707C565.999999999999,277.09817162719133,564.9999999999991,274.3810618682184,563.9999999999991,271.46134777712547C562.9999999999991,268.5416336860325,561.999999999999,265.41931526281957,560.999999999999,262.10999109427837C559.999999999999,258.8006669257372,558.999999999999,255.3043370118678,557.999999999999,251.6384684390533C556.999999999999,247.97259986623882,555.999999999999,244.13719263447925,554.999999999999,240.15140780439597C553.999999999999,236.1656229743127,552.9999999999991,232.02946054590575,551.9999999999991,227.76358410305056C550.9999999999991,223.49770766019546,549.9999999999991,219.10211720289212,548.9999999999991,214.5987723745708C547.9999999999991,210.0954275462495,546.999999999999,205.48432834691025,545.999999999999,200.78851106603943C544.999999999999,196.09269378516873,543.9999999999991,191.3121584227665,542.9999999999991,186.47078774338593C541.9999999999991,181.62941706400537,540.9999999999991,176.72721106764644,539.9999999999991,171.78866036524008C538.9999999999991,166.85010966283372,537.9999999999991,161.87521425437987,536.9999999999991,156.8888278950983C535.9999999999991,151.90244153581673,534.9999999999991,146.90456422570742,533.9999999999991,141.9201645337724C532.9999999999991,136.93576484183743,531.9999999999991,131.96484276807672,530.9999999999991,127.03223221758662C529.9999999999991,122.09962166709651,528.9999999999992,117.20532263987702,527.9999999999992,112.37378624494802C526.9999999999992,107.54224985001906,525.9999999999991,102.77347608738057,524.9999999999991,98.09128896257727C523.9999999999991,93.40910183777396,522.9999999999991,88.8135013508058,521.9999999999991,84.32744636215388C520.9999999999991,79.84139137350198,519.9999999999992,75.46488188316633,518.9999999999992,71.21978220921982C517.9999999999992,66.97468253527329,516.9999999999992,62.860992677715906,515.9999999999992,58.89926395117349C514.9999999999992,54.937535224631056,513.9999999999992,51.12776762910358,512.9999999999992,47.48899413382744C511.99999999999915,43.8502206385513,510.99999999999915,40.38244124352649,509.99999999999915,37.10298040146283C508.99999999999915,33.823519559399166,507.99999999999915,30.732377270296656,506.99999999999915,27.84499637013376C505.99999999999926,24.957615469970865,504.99999999999926,22.273995958747587,503.99999999999926,19.807544755998652C502.99999999999926,17.34109355324972,501.99999999999926,15.091810658975135,500.99999999999926,13.070933118757646C499.99999999999926,11.050055578540158,498.99999999999926,9.257583392379766,497.99999999999915,7.702471455062285C496.99999999999926,6.147359517744803,495.99999999999926,4.8296078292702305,494.99999999999926,3.755799659278779C493.99999999999926,2.681991489287327,492.9999999999993,1.8521268377789966,491.99999999999926,1.2703515713943336C490.9999999999993,0.6885763050096708,489.9999999999993,0.3548904237486757,488.99999999999926,0.2709609671231779C487.99999999999926,0.18703151049768016,486.99999999999926,0.35285847850767976,485.99999999999926,0.7676134270285596C484.99999999999926,1.1823683755494396,483.99999999999926,1.8460513045811997,482.99999999999926,2.7553465639025965C481.9999999999993,3.664641823223993,480.9999999999993,4.819549412835026,479.99999999999926,6.214299605298852C478.9999999999993,7.60904979776268,477.9999999999993,9.2436425930793,476.9999999999993,11.109911835805576C475.9999999999993,12.976181078531852,474.9999999999994,15.074126768667782,473.9999999999994,17.393267916289773C472.9999999999994,19.712409063911764,471.9999999999994,22.252745669019816,470.9999999999994,25.001586629796634C469.9999999999994,27.75042759057345,468.9999999999994,30.707772907019034,467.9999999999994,33.858848170716605C466.9999999999994,37.00992343441417,465.9999999999994,40.35472864536373,464.9999999999994,43.87655370955417C463.9999999999994,47.39837877374461,462.9999999999993,51.09722369117594,461.9999999999994,54.95460964397847C460.9999999999994,58.811995596780996,459.9999999999994,62.82792258495471,458.9999999999995,66.98232770101119C457.9999999999994,71.13673281706768,456.9999999999994,75.42961606100691,455.9999999999995,79.83953089766145C454.9999999999994,84.24944573431598,453.9999999999994,88.77639216368583,452.9999999999995,93.3977543096146C451.9999999999994,98.0191164555434,450.9999999999994,102.73489431803114,449.9999999999994,107.52152865029127C448.9999999999994,112.30816298255142,447.9999999999994,117.16565378458397,446.9999999999994,122.06973383517845C445.9999999999994,126.97381388577297,444.9999999999995,131.92448318492941,443.9999999999995,136.89700900706606C442.9999999999995,141.8695348292027,441.9999999999995,146.86391717431954,440.9999999999995,151.85520493368202C439.9999999999994,156.84649269304455,438.9999999999994,161.83468586665273,437.9999999999995,166.79486426584992C436.9999999999994,171.75504266504709,435.9999999999994,176.6872062898333,434.9999999999995,181.56671486591742C433.9999999999994,186.4462234420015,432.9999999999994,191.27307696938348,431.9999999999995,196.02316128561333C430.9999999999995,200.77324560184317,429.9999999999995,205.4465607069209,428.9999999999995,210.01975949097786C427.9999999999995,214.5929582750348,426.9999999999995,219.06604073807094,425.9999999999995,223.41666009940323C424.9999999999995,227.76727946073552,423.9999999999995,231.99543572036393,422.9999999999995,236.0800057084367C421.9999999999995,240.16457569650944,420.9999999999995,244.10555941302655,419.9999999999995,247.8832683546983C418.9999999999995,251.66097729637,417.9999999999995,255.27541146319638,416.9999999999995,258.7085137394664C415.9999999999995,262.1416160157365,414.9999999999995,265.39338640145024,413.9999999999995,268.4475795892069C412.9999999999995,271.5017727769635,411.9999999999995,274.358388766763,410.9999999999995,277.0031563772563C409.9999999999995,279.64792398774944,408.9999999999995,282.0808432189363,407.9999999999995,284.28975960844593C406.9999999999995,286.49867599795556,405.9999999999995,288.48358954578794,404.9999999999995,290.23458395192074C403.9999999999995,291.9855783580535,402.9999999999995,293.5026536224866,401.9999999999995,294.7782306879382C400.9999999999995,296.0538077533899,399.9999999999995,297.08788661986,398.9999999999995,297.8753012002422C397.9999999999995,298.66271578062447,396.9999999999995,299.2034660749188,395.9999999999995,299.49485058402905C394.9999999999995,299.78623509313934,393.9999999999995,299.82825381706556,392.9999999999995,299.6206968372078C391.9999999999995,299.41313985735,390.9999999999995,298.9560071737082,389.9999999999995,298.2515825456159C388.9999999999995,297.54715791752363,387.9999999999995,296.59544134498077,386.9999999999995,295.40118744668604C385.9999999999995,294.20693354839125,384.9999999999995,292.77014232434453,383.9999999999995,291.09799174603125C382.9999999999995,289.4258411677179,381.9999999999995,287.51833123513796,380.9999999999995,285.38499155264515C379.9999999999995,283.2516518701523,378.9999999999995,280.8924824377465,377.9999999999995,278.31926927599324C376.9999999999995,275.74605611423993,375.9999999999995,272.95879922313924,374.9999999999995,269.9714232774466C373.9999999999995,266.98404733175397,372.9999999999995,263.7965523314695,371.9999999999995,260.42486247479167C370.9999999999995,257.0531726181139,369.9999999999995,253.49728790504275,368.9999999999995,249.77497294789518C367.9999999999995,246.05265799074763,366.9999999999995,242.16391278952366,365.9999999999995,238.12816487252442C364.9999999999994,234.0924169555252,363.9999999999994,229.90966632275072,362.9999999999995,225.6008093050456C361.9999999999994,221.29195228734048,360.9999999999994,216.8569888847047,359.9999999999995,212.3180754412958C358.9999999999994,207.77916199788692,357.9999999999994,203.13629851370493,356.9999999999995,198.4126799673535C355.9999999999994,193.6890614210021,354.9999999999994,188.88468781248127,353.9999999999995,184.0235609982818C352.9999999999994,179.16243418408226,351.9999999999994,174.24455416420415,350.9999999999995,169.29448985440914C349.9999999999994,164.34442554461418,348.9999999999994,159.36217694490236,347.9999999999995,154.37263454582168C346.9999999999994,149.38309214674098,345.9999999999994,144.3862559482914,344.9999999999995,139.40708931825316C343.9999999999994,134.42792268821492,342.9999999999994,129.466425626588,341.9999999999995,124.54738495266592C340.99999999999943,119.6283442787438,339.99999999999943,114.7517599925265,338.9999999999995,109.94199470311571C337.99999999999943,105.1322294137049,336.99999999999943,100.38928312110063,335.9999999999995,95.7368508010759C334.99999999999943,91.08441848105117,333.99999999999943,86.52250013360602,332.9999999999995,82.07388634881941C331.99999999999943,77.6252725640328,330.99999999999943,73.28996334190472,329.9999999999995,69.0896171707776C328.99999999999943,64.88927099965046,327.99999999999943,60.823887879524285,326.9999999999995,56.91377779254871C325.99999999999943,53.00366770557312,324.99999999999943,49.248830651748136,323.9999999999995,45.6680251764026C322.99999999999943,42.08721970105707,321.99999999999943,38.68044580419099,320.9999999999995,35.46472316512824C319.9999999999995,32.249000526065494,318.9999999999995,29.22432914480608,317.9999999999995,26.405819779659055C316.9999999999995,23.58731041451203,315.9999999999995,20.974963065477386,314.9999999999995,18.5818285881473C313.99999999999943,16.18869411081721,312.99999999999943,14.014772505191672,311.9999999999995,12.070924324310928C310.99999999999943,10.127076143430182,309.99999999999943,8.413301387294231,308.9999999999995,6.9381617913354034C307.9999999999995,5.463022195376577,306.9999999999995,4.226517759594874,305.9999999999995,3.234825855784474C304.9999999999995,2.243133951974073,303.9999999999995,1.4962545801349734,302.9999999999995,0.9979190261661112C301.9999999999995,0.499583472197249,300.9999999999994,0.2497917360986245,299.9999999999994,0.24979173609870978C298.9999999999994,0.24979173609879504,297.9999999999994,0.4995834721975901,296.9999999999994,0.9979190261666417C295.99999999999943,1.4962545801356935,294.99999999999943,2.2431339519750018,293.9999999999995,3.234825855785592C292.99999999999943,4.226517759596182,291.99999999999943,5.463022195378055,290.9999999999995,6.938161791337062C289.99999999999943,8.413301387296068,288.99999999999943,10.12707614343221,287.9999999999995,12.070924324313125C286.99999999999943,14.01477250519404,285.99999999999943,16.18869411081973,284.9999999999995,18.58182858814998C283.99999999999943,20.974963065480228,282.99999999999943,23.58731041451504,281.9999999999995,26.405819779662227C280.99999999999943,29.224329144809417,279.99999999999943,32.24900052606898,278.9999999999995,35.46472316513188C277.99999999999943,38.68044580419477,276.99999999999943,42.087219701060995,275.9999999999995,45.66802517640665C274.99999999999943,49.24883065175232,273.99999999999943,53.003667705577435,272.9999999999995,56.91377779255313C271.9999999999995,60.823887879528826,270.9999999999995,64.88927099965511,269.9999999999995,69.08961717078233C268.9999999999995,73.28996334190957,267.9999999999995,77.62527256403773,266.9999999999995,82.07388634882443C265.99999999999943,86.52250013361113,264.99999999999943,91.08441848105635,263.9999999999995,95.73685080108113C262.99999999999943,100.38928312110592,261.99999999999943,105.13222941371028,260.99999999999943,109.94199470312113C259.9999999999994,114.75175999253197,258.9999999999994,119.62834427874931,257.9999999999994,124.54738495267145C256.9999999999994,129.46642562659358,255.9999999999994,134.4279226882205,254.9999999999994,139.40708931825876C253.99999999999943,144.38625594829702,252.99999999999943,149.38309214674658,251.99999999999946,154.3726345458273C250.99999999999943,159.362176944908,249.99999999999943,164.34442554461978,248.99999999999946,169.2944898544147C247.99999999999943,174.2445541642097,246.99999999999946,179.1624341840878,245.99999999999943,184.02356099828725C244.99999999999943,188.8846878124867,243.99999999999943,193.6890614210075,242.9999999999994,198.41267996735883C241.9999999999994,203.13629851371016,240.9999999999994,207.7791619978921,239.9999999999994,212.31807544130092C238.9999999999994,216.85698888470975,237.9999999999994,221.29195228734545,236.9999999999994,225.60080930505055C235.9999999999994,229.90966632275556,234.9999999999994,234.0924169555299,233.9999999999994,238.12816487252903C232.9999999999994,242.16391278952813,231.9999999999994,246.05265799075198,230.9999999999994,249.7749729478994C229.9999999999994,253.49728790504685,228.9999999999994,257.05317261811786,227.9999999999994,260.42486247479553C226.9999999999994,263.79655233147315,225.9999999999994,266.9840473317575,224.9999999999994,269.97142327744996C223.9999999999994,272.9587992231424,222.9999999999994,275.746056114243,221.9999999999994,278.31926927599613C220.9999999999994,280.89248243774927,219.9999999999994,283.25165187015483,218.9999999999994,285.38499155264753C217.9999999999994,287.51833123514024,216.9999999999994,289.42584116771997,215.9999999999994,291.09799174603313C214.9999999999994,292.7701423243463,213.9999999999994,294.2069335483928,212.9999999999994,295.4011874466874C211.9999999999994,296.59544134498196,210.9999999999994,297.5471579175246,209.99999999999935,298.2515825456167C208.9999999999994,298.9560071737089,207.9999999999994,299.4131398573505,206.99999999999935,299.6206968372081C205.9999999999994,299.8282538170656,204.9999999999994,299.78623509313917,203.99999999999935,299.4948505840287C202.9999999999994,299.20346607491825,201.9999999999994,298.6627157806238,200.99999999999935,297.8753012002414C199.9999999999994,297.0878866198589,198.9999999999994,296.05380775338864,197.99999999999935,294.77823068793685C196.9999999999994,293.502653622485,195.9999999999994,291.98557835805167,194.99999999999935,290.2345839519187C193.9999999999994,288.4835895457858,192.9999999999994,286.4986759979532,191.99999999999935,284.2897596084435C190.9999999999994,282.08084321893364,189.9999999999994,279.6479239877466,188.99999999999935,277.0031563772532C187.9999999999994,274.3583887667599,186.9999999999994,271.5017727769602,185.99999999999935,268.4475795892035C184.9999999999994,265.39338640144666,183.9999999999994,262.1416160157327,182.99999999999935,258.7085137394625C181.9999999999994,255.27541146319234,180.9999999999994,251.66097729636587,179.99999999999935,247.88326835469402C178.99999999999935,244.10555941302218,177.99999999999935,240.16457569650495,176.99999999999935,236.08000570843208C175.99999999999935,231.99543572035927,174.99999999999935,227.76727946073075,173.99999999999935,223.4166600993984C172.9999999999994,219.06604073806602,171.9999999999994,214.59295827502976,170.99999999999935,210.01975949097275C169.9999999999994,205.44656070691568,168.9999999999994,200.77324560183789,167.9999999999994,196.023161285608C166.9999999999994,191.27307696937814,165.9999999999994,186.44622344199607,164.9999999999994,181.566714865912C163.9999999999994,176.68720628982783,162.9999999999994,171.75504266504154,161.9999999999994,166.79486426584435C160.9999999999994,161.83468586664716,159.99999999999943,156.84649269303898,158.99999999999943,151.85520493367645C157.99999999999943,146.86391717431397,156.99999999999943,141.86953482919708,155.99999999999943,136.89700900706046C154.99999999999943,131.92448318492384,153.99999999999946,126.97381388576741,152.99999999999946,122.06973383517295C151.99999999999946,117.16565378457851,150.99999999999946,112.308162982546,149.99999999999946,107.52152865028592C148.99999999999946,102.73489431802584,147.99999999999946,98.01911645553817,146.99999999999946,93.39775430960945C145.9999999999995,88.77639216368073,144.9999999999995,84.24944573431095,143.99999999999952,79.8395308976565C142.9999999999995,75.42961606100205,141.9999999999995,71.1367328170629,140.99999999999952,66.98232770100653C139.99999999999952,62.82792258495016,138.99999999999952,58.81199559677654,137.99999999999952,54.95460964397412C136.99999999999952,51.09722369117171,135.99999999999952,47.39837877374051,134.99999999999952,43.876553709550194C133.99999999999952,40.35472864535988,132.99999999999955,37.00992343441046,131.99999999999955,33.85884817071304C130.99999999999955,30.707772907015624,129.99999999999955,27.75042759057021,128.99999999999955,25.001586629793554C127.99999999999955,22.2527456690169,126.99999999999955,19.712409063908996,125.99999999999955,17.39326791628717C124.99999999999955,15.074126768665337,123.99999999999955,12.976181078529578,122.99999999999955,11.109911835803482C121.99999999999956,9.243642593077388,120.99999999999956,7.609049797760956,119.99999999999956,6.214299605297309C118.99999999999959,4.819549412833662,117.99999999999959,3.6646418232227993,116.99999999999959,2.7553465639015826C115.99999999999959,1.8460513045803661,114.9999999999996,1.1823683755487953,113.99999999999959,0.7676134270280954C112.9999999999996,0.35285847850739555,111.9999999999996,0.18703151049756647,110.9999999999996,0.27096096712325374C109.9999999999996,0.354890423748941,108.99999999999962,0.6885763050101446,107.99999999999962,1.2703515713949969C106.99999999999962,1.8521268377798492,105.99999999999962,2.6819914892883503,104.99999999999964,3.755799659279982C103.99999999999964,4.829607829271613,102.99999999999964,6.147359517746376,101.99999999999964,7.702471455064038C100.99999999999966,9.257583392381699,99.99999999999966,11.050055578542262,98.99999999999966,13.07093311875991C97.99999999999966,15.09181065897756,96.99999999999966,17.341093553252296,95.99999999999966,19.80754475600139C94.99999999999966,22.273995958750486,93.99999999999966,24.957615469973934,92.99999999999967,27.844996370136993C91.99999999999967,30.73237727030005,90.99999999999967,33.82351955940271,89.99999999999967,37.10298040146651C88.9999999999997,40.38244124353031,87.9999999999997,43.85022063855524,86.99999999999967,47.48899413383151C85.9999999999997,51.12776762910778,84.9999999999997,54.93753522463538,83.9999999999997,58.89926395117792C82.9999999999997,62.860992677720475,81.9999999999997,66.97468253527796,80.9999999999997,71.21978220922458C79.9999999999997,75.46488188317119,78.99999999999972,79.84139137350692,77.99999999999972,84.32744636215891C76.99999999999972,88.8135013508109,75.99999999999973,93.40910183777913,74.99999999999973,98.09128896258251C73.99999999999973,102.77347608738587,72.99999999999973,107.5422498500244,71.99999999999974,112.37378624495345C70.99999999999976,117.20532263988245,69.99999999999976,122.099621667102,68.99999999999976,127.03223221759212C67.99999999999976,131.96484276808226,66.99999999999977,136.935764841843,65.99999999999977,141.920164533778C64.99999999999977,146.90456422571302,63.99999999999977,151.9024415358223,62.99999999999977,156.88882789510387C61.99999999999977,161.87521425438544,60.99999999999978,166.85010966283926,59.999999999999794,171.7886603652456C58.999999999999794,176.72721106765198,57.999999999999794,181.62941706401082,56.9999999999998,186.47078774339136C55.9999999999998,191.3121584227719,54.99999999999981,196.09269378517402,53.99999999999981,200.78851106604472C52.99999999999981,205.4843283469154,51.99999999999982,210.09542754625463,50.99999999999982,214.59877237457587C49.99999999999983,219.10211720289706,48.99999999999983,223.4977076602003,47.99999999999983,227.76358410305534C46.99999999999983,232.0294605459104,45.99999999999984,236.1656229743173,44.99999999999984,240.15140780440046C43.99999999999985,244.13719263448363,42.99999999999985,247.97259986624303,41.99999999999985,251.6384684390574C40.99999999999985,255.30433701187175,39.99999999999986,258.80066692574104,38.99999999999986,262.1099910942821C37.999999999999865,265.41931526282315,36.999999999999865,268.54163368603594,35.99999999999987,271.4613477771287C34.99999999999988,274.3810618682215,33.99999999999988,277.0981716271943,32.999999999999886,279.5991028227698C31.999999999999886,282.1000340183453,30.99999999999989,284.3847866505235,29.999999999999897,286.4419464727735C28.999999999999897,288.49910629502347,27.9999999999999,290.32867330734524,26.999999999999904,291.92150729533233C25.999999999999904,293.51434128331954,24.99999999999991,294.87044224697206,23.999999999999915,295.98303533000933C22.99999999999992,297.0956284130466,21.999999999999925,297.9647136154686,20.999999999999925,298.58594913124466C19.99999999999993,299.2071846470207,18.999999999999932,299.58057047615085,17.999999999999936,299.7042412447452C16.99999999999994,299.8279120133396,15.999999999999943,299.7018677213982,14.999999999999945,299.3267380653712C13.99999999999995,298.95160840934415,12.999999999999952,298.32739338923153,11.999999999999957,297.45721148010483C10.999999999999963,296.58702957097813,9.999999999999964,295.4708807728373,8.999999999999968,294.11434118060293C7.999999999999972,292.75780158836864,6.999999999999975,291.1608712020408,5.999999999999979,289.3315280218921C4.999999999999982,287.5021848417434,3.999999999999986,285.4404288677738,2.9999999999999893,283.1565602920662C1.999999999999993,280.8726917163587,0.9999999999999964,278.3667105389133,0.4999999999999982,277.1137199501906L0,275.86072936146786"
               style="fill: none; stroke: rgb(76, 120, 168); stroke-width: 2;"
               id="path5443" />
          </g>
          <g
             class="mark-text role-title"
             style="pointer-events: none;"
             id="g5449">
            <text
               text-anchor="middle"
               transform="translate(300,-13)"
               style="font-style: normal; font-variant: normal; font-weight: bold; font-stretch: normal; font-size: 13px; line-height: normal; font-family: sans-serif; fill: rgb(0, 0, 0); opacity: 1;"
               id="text5447">(x) =&gt; Math.cos(x)</text>
          </g>
          <g
             class="mark-group role-axis"
             id="g5553">
            <g
               transform="translate(0.5,300.5)"
               id="g5551">
              <path
                 class="background"
                 d="M0,0h0v0h0Z"
                 style="pointer-events: none; fill: none;"
                 id="path5451" />
              <g
                 id="g5549">
                <g
                   class="mark-rule role-axis-tick"
                   style="pointer-events: none;"
                   id="g5495">
                  <line
                     transform="translate(0,0)"
                     x2="0"
                     y2="5"
                     style="fill: none; stroke: rgb(136, 136, 136); stroke-width: 1; opacity: 1;"
                     id="line5453" />
                  <line
                     transform="translate(30,0)"
                     x2="0"
                     y2="5"
                     style="fill: none; stroke: rgb(136, 136, 136); stroke-width: 1; opacity: 1;"
                     id="line5455" />
                  <line
                     transform="translate(60,0)"
                     x2="0"
                     y2="5"
                     style="fill: none; stroke: rgb(136, 136, 136); stroke-width: 1; opacity: 1;"
                     id="line5457" />
                  <line
                     transform="translate(90,0)"
                     x2="0"
                     y2="5"
                     style="fill: none; stroke: rgb(136, 136, 136); stroke-width: 1; opacity: 1;"
                     id="line5459" />
                  <line
                     transform="translate(120,0)"
                     x2="0"
                     y2="5"
                     style="fill: none; stroke: rgb(136, 136, 136); stroke-width: 1; opacity: 1;"
                     id="line5461" />
                  <line
                     transform="translate(150,0)"
                     x2="0"
                     y2="5"
                     style="fill: none; stroke: rgb(136, 136, 136); stroke-width: 1; opacity: 1;"
                     id="line5463" />
                  <line
                     transform="translate(180,0)"
                     x2="0"
                     y2="5"
                     style="fill: none; stroke: rgb(136, 136, 136); stroke-width: 1; opacity: 1;"
                     id="line5465" />
                  <line
                     transform="translate(210,0)"
                     x2="0"
                     y2="5"
                     style="fill: none; stroke: rgb(136, 136, 136); stroke-width: 1; opacity: 1;"
                     id="line5467" />
                  <line
                     transform="translate(240,0)"
                     x2="0"
                     y2="5"
                     style="fill: none; stroke: rgb(136, 136, 136); stroke-width: 1; opacity: 1;"
                     id="line5469" />
                  <line
                     transform="translate(270,0)"
                     x2="0"
                     y2="5"
                     style="fill: none; stroke: rgb(136, 136, 136); stroke-width: 1; opacity: 1;"
                     id="line5471" />
                  <line
                     transform="translate(300,0)"
                     x2="0"
                     y2="5"
                     style="fill: none; stroke: rgb(136, 136, 136); stroke-width: 1; opacity: 1;"
                     id="line5473" />
                  <line
                     transform="translate(330,0)"
                     x2="0"
                     y2="5"
                     style="fill: none; stroke: rgb(136, 136, 136); stroke-width: 1; opacity: 1;"
                     id="line5475" />
                  <line
                     transform="translate(360,0)"
                     x2="0"
                     y2="5"
                     style="fill: none; stroke: rgb(136, 136, 136); stroke-width: 1; opacity: 1;"
                     id="line5477" />
                  <line
                     transform="translate(390,0)"
                     x2="0"
                     y2="5"
                     style="fill: none; stroke: rgb(136, 136, 136); stroke-width: 1; opacity: 1;"
                     id="line5479" />
                  <line
                     transform="translate(420,0)"
                     x2="0"
                     y2="5"
                     style="fill: none; stroke: rgb(136, 136, 136); stroke-width: 1; opacity: 1;"
                     id="line5481" />
                  <line
                     transform="translate(450,0)"
                     x2="0"
                     y2="5"
                     style="fill: none; stroke: rgb(136, 136, 136); stroke-width: 1; opacity: 1;"
                     id="line5483" />
                  <line
                     transform="translate(480,0)"
                     x2="0"
                     y2="5"
                     style="fill: none; stroke: rgb(136, 136, 136); stroke-width: 1; opacity: 1;"
                     id="line5485" />
                  <line
                     transform="translate(510,0)"
                     x2="0"
                     y2="5"
                     style="fill: none; stroke: rgb(136, 136, 136); stroke-width: 1; opacity: 1;"
                     id="line5487" />
                  <line
                     transform="translate(540,0)"
                     x2="0"
                     y2="5"
                     style="fill: none; stroke: rgb(136, 136, 136); stroke-width: 1; opacity: 1;"
                     id="line5489" />
                  <line
                     transform="translate(570,0)"
                     x2="0"
                     y2="5"
                     style="fill: none; stroke: rgb(136, 136, 136); stroke-width: 1; opacity: 1;"
                     id="line5491" />
                  <line
                     transform="translate(600,0)"
                     x2="0"
                     y2="5"
                     style="fill: none; stroke: rgb(136, 136, 136); stroke-width: 1; opacity: 1;"
                     id="line5493" />
                </g>
                <g
                   class="mark-text role-axis-label"
                   style="pointer-events: none;"
                   id="g5539">
                  <text
                     text-anchor="start"
                     transform="translate(0,15)"
                     style="font-style: normal; font-variant: normal; font-weight: normal; font-stretch: normal; font-size: 10px; line-height: normal; font-family: sans-serif; fill: rgb(0, 0, 0); opacity: 1;"
                     id="text5497">-10</text>
                  <text
                     text-anchor="middle"
                     transform="translate(30,15)"
                     style="font-style: normal; font-variant: normal; font-weight: normal; font-stretch: normal; font-size: 10px; line-height: normal; font-family: sans-serif; fill: rgb(0, 0, 0); opacity: 1;"
                     id="text5499">-9</text>
                  <text
                     text-anchor="middle"
                     transform="translate(60,15)"
                     style="font-style: normal; font-variant: normal; font-weight: normal; font-stretch: normal; font-size: 10px; line-height: normal; font-family: sans-serif; fill: rgb(0, 0, 0); opacity: 1;"
                     id="text5501">-8</text>
                  <text
                     text-anchor="middle"
                     transform="translate(90,15)"
                     style="font-style: normal; font-variant: normal; font-weight: normal; font-stretch: normal; font-size: 10px; line-height: normal; font-family: sans-serif; fill: rgb(0, 0, 0); opacity: 1;"
                     id="text5503">-7</text>
                  <text
                     text-anchor="middle"
                     transform="translate(120,15)"
                     style="font-style: normal; font-variant: normal; font-weight: normal; font-stretch: normal; font-size: 10px; line-height: normal; font-family: sans-serif; fill: rgb(0, 0, 0); opacity: 1;"
                     id="text5505">-6</text>
                  <text
                     text-anchor="middle"
                     transform="translate(150,15)"
                     style="font-style: normal; font-variant: normal; font-weight: normal; font-stretch: normal; font-size: 10px; line-height: normal; font-family: sans-serif; fill: rgb(0, 0, 0); opacity: 1;"
                     id="text5507">-5</text>
                  <text
                     text-anchor="middle"
                     transform="translate(180,15)"
                     style="font-style: normal; font-variant: normal; font-weight: normal; font-stretch: normal; font-size: 10px; line-height: normal; font-family: sans-serif; fill: rgb(0, 0, 0); opacity: 1;"
                     id="text5509">-4</text>
                  <text
                     text-anchor="middle"
                     transform="translate(210,15)"
                     style="font-style: normal; font-variant: normal; font-weight: normal; font-stretch: normal; font-size: 10px; line-height: normal; font-family: sans-serif; fill: rgb(0, 0, 0); opacity: 1;"
                     id="text5511">-3</text>
                  <text
                     text-anchor="middle"
                     transform="translate(240,15)"
                     style="font-style: normal; font-variant: normal; font-weight: normal; font-stretch: normal; font-size: 10px; line-height: normal; font-family: sans-serif; fill: rgb(0, 0, 0); opacity: 1;"
                     id="text5513">-2</text>
                  <text
                     text-anchor="middle"
                     transform="translate(270,15)"
                     style="font-style: normal; font-variant: normal; font-weight: normal; font-stretch: normal; font-size: 10px; line-height: normal; font-family: sans-serif; fill: rgb(0, 0, 0); opacity: 1;"
                     id="text5515">-1</text>
                  <text
                     text-anchor="middle"
                     transform="translate(300,15)"
                     style="font-style: normal; font-variant: normal; font-weight: normal; font-stretch: normal; font-size: 10px; line-height: normal; font-family: sans-serif; fill: rgb(0, 0, 0); opacity: 1;"
                     id="text5517">0</text>
                  <text
                     text-anchor="middle"
                     transform="translate(330,15)"
                     style="font-style: normal; font-variant: normal; font-weight: normal; font-stretch: normal; font-size: 10px; line-height: normal; font-family: sans-serif; fill: rgb(0, 0, 0); opacity: 1;"
                     id="text5519">1</text>
                  <text
                     text-anchor="middle"
                     transform="translate(360,15)"
                     style="font-style: normal; font-variant: normal; font-weight: normal; font-stretch: normal; font-size: 10px; line-height: normal; font-family: sans-serif; fill: rgb(0, 0, 0); opacity: 1;"
                     id="text5521">2</text>
                  <text
                     text-anchor="middle"
                     transform="translate(390,15)"
                     style="font-style: normal; font-variant: normal; font-weight: normal; font-stretch: normal; font-size: 10px; line-height: normal; font-family: sans-serif; fill: rgb(0, 0, 0); opacity: 1;"
                     id="text5523">3</text>
                  <text
                     text-anchor="middle"
                     transform="translate(420,15)"
                     style="font-style: normal; font-variant: normal; font-weight: normal; font-stretch: normal; font-size: 10px; line-height: normal; font-family: sans-serif; fill: rgb(0, 0, 0); opacity: 1;"
                     id="text5525">4</text>
                  <text
                     text-anchor="middle"
                     transform="translate(450,15)"
                     style="font-style: normal; font-variant: normal; font-weight: normal; font-stretch: normal; font-size: 10px; line-height: normal; font-family: sans-serif; fill: rgb(0, 0, 0); opacity: 1;"
                     id="text5527">5</text>
                  <text
                     text-anchor="middle"
                     transform="translate(480,15)"
                     style="font-style: normal; font-variant: normal; font-weight: normal; font-stretch: normal; font-size: 10px; line-height: normal; font-family: sans-serif; fill: rgb(0, 0, 0); opacity: 1;"
                     id="text5529">6</text>
                  <text
                     text-anchor="middle"
                     transform="translate(510,15)"
                     style="font-style: normal; font-variant: normal; font-weight: normal; font-stretch: normal; font-size: 10px; line-height: normal; font-family: sans-serif; fill: rgb(0, 0, 0); opacity: 1;"
                     id="text5531">7</text>
                  <text
                     text-anchor="middle"
                     transform="translate(540,15)"
                     style="font-style: normal; font-variant: normal; font-weight: normal; font-stretch: normal; font-size: 10px; line-height: normal; font-family: sans-serif; fill: rgb(0, 0, 0); opacity: 1;"
                     id="text5533">8</text>
                  <text
                     text-anchor="middle"
                     transform="translate(570,15)"
                     style="font-style: normal; font-variant: normal; font-weight: normal; font-stretch: normal; font-size: 10px; line-height: normal; font-family: sans-serif; fill: rgb(0, 0, 0); opacity: 1;"
                     id="text5535">9</text>
                  <text
                     text-anchor="end"
                     transform="translate(600,15)"
                     style="font-style: normal; font-variant: normal; font-weight: normal; font-stretch: normal; font-size: 10px; line-height: normal; font-family: sans-serif; fill: rgb(0, 0, 0); opacity: 1;"
                     id="text5537">10</text>
                </g>
                <g
                   class="mark-rule role-axis-domain"
                   style="pointer-events: none;"
                   id="g5543">
                  <line
                     transform="translate(0,0)"
                     x2="600"
                     y2="0"
                     style="fill: none; stroke: rgb(136, 136, 136); stroke-width: 1; opacity: 1;"
                     id="line5541" />
                </g>
                <g
                   class="mark-text role-axis-title"
                   style="pointer-events: none;"
                   id="g5547">
                  <text
                     text-anchor="middle"
                     transform="translate(300,31)"
                     style="font-style: normal; font-variant: normal; font-weight: bold; font-stretch: normal; font-size: 11px; line-height: normal; font-family: sans-serif; fill: rgb(0, 0, 0); opacity: 1;"
                     id="text5545">X</text>
                </g>
              </g>
            </g>
          </g>
          <g
             class="mark-group role-axis"
             id="g5617">
            <g
               transform="translate(0.5,0.5)"
               id="g5615">
              <path
                 class="background"
                 d="M0,0h0v0h0Z"
                 style="pointer-events: none; fill: none;"
                 id="path5555" />
              <g
                 id="g5613">
                <g
                   class="mark-rule role-axis-tick"
                   style="pointer-events: none;"
                   id="g5579">
                  <line
                     transform="translate(0,300)"
                     x2="-5"
                     y2="0"
                     style="fill: none; stroke: rgb(136, 136, 136); stroke-width: 1; opacity: 1;"
                     id="line5557" />
                  <line
                     transform="translate(0,270)"
                     x2="-5"
                     y2="0"
                     style="fill: none; stroke: rgb(136, 136, 136); stroke-width: 1; opacity: 1;"
                     id="line5559" />
                  <line
                     transform="translate(0,240)"
                     x2="-5"
                     y2="0"
                     style="fill: none; stroke: rgb(136, 136, 136); stroke-width: 1; opacity: 1;"
                     id="line5561" />
                  <line
                     transform="translate(0,210)"
                     x2="-5"
                     y2="0"
                     style="fill: none; stroke: rgb(136, 136, 136); stroke-width: 1; opacity: 1;"
                     id="line5563" />
                  <line
                     transform="translate(0,180)"
                     x2="-5"
                     y2="0"
                     style="fill: none; stroke: rgb(136, 136, 136); stroke-width: 1; opacity: 1;"
                     id="line5565" />
                  <line
                     transform="translate(0,150)"
                     x2="-5"
                     y2="0"
                     style="fill: none; stroke: rgb(136, 136, 136); stroke-width: 1; opacity: 1;"
                     id="line5567" />
                  <line
                     transform="translate(0,120)"
                     x2="-5"
                     y2="0"
                     style="fill: none; stroke: rgb(136, 136, 136); stroke-width: 1; opacity: 1;"
                     id="line5569" />
                  <line
                     transform="translate(0,90)"
                     x2="-5"
                     y2="0"
                     style="fill: none; stroke: rgb(136, 136, 136); stroke-width: 1; opacity: 1;"
                     id="line5571" />
                  <line
                     transform="translate(0,60)"
                     x2="-5"
                     y2="0"
                     style="fill: none; stroke: rgb(136, 136, 136); stroke-width: 1; opacity: 1;"
                     id="line5573" />
                  <line
                     transform="translate(0,30)"
                     x2="-5"
                     y2="0"
                     style="fill: none; stroke: rgb(136, 136, 136); stroke-width: 1; opacity: 1;"
                     id="line5575" />
                  <line
                     transform="translate(0,0)"
                     x2="-5"
                     y2="0"
                     style="fill: none; stroke: rgb(136, 136, 136); stroke-width: 1; opacity: 1;"
                     id="line5577" />
                </g>
                <g
                   class="mark-text role-axis-label"
                   style="pointer-events: none;"
                   id="g5603">
                  <text
                     text-anchor="end"
                     transform="translate(-7,303)"
                     style="font-style: normal; font-variant: normal; font-weight: normal; font-stretch: normal; font-size: 10px; line-height: normal; font-family: sans-serif; fill: rgb(0, 0, 0); opacity: 1;"
                     id="text5581">-1.0</text>
                  <text
                     text-anchor="end"
                     transform="translate(-7,273)"
                     style="font-style: normal; font-variant: normal; font-weight: normal; font-stretch: normal; font-size: 10px; line-height: normal; font-family: sans-serif; fill: rgb(0, 0, 0); opacity: 1;"
                     id="text5583">-0.8</text>
                  <text
                     text-anchor="end"
                     transform="translate(-7,243)"
                     style="font-style: normal; font-variant: normal; font-weight: normal; font-stretch: normal; font-size: 10px; line-height: normal; font-family: sans-serif; fill: rgb(0, 0, 0); opacity: 1;"
                     id="text5585">-0.6</text>
                  <text
                     text-anchor="end"
                     transform="translate(-7,213)"
                     style="font-style: normal; font-variant: normal; font-weight: normal; font-stretch: normal; font-size: 10px; line-height: normal; font-family: sans-serif; fill: rgb(0, 0, 0); opacity: 1;"
                     id="text5587">-0.4</text>
                  <text
                     text-anchor="end"
                     transform="translate(-7,183)"
                     style="font-style: normal; font-variant: normal; font-weight: normal; font-stretch: normal; font-size: 10px; line-height: normal; font-family: sans-serif; fill: rgb(0, 0, 0); opacity: 1;"
                     id="text5589">-0.2</text>
                  <text
                     text-anchor="end"
                     transform="translate(-7,153)"
                     style="font-style: normal; font-variant: normal; font-weight: normal; font-stretch: normal; font-size: 10px; line-height: normal; font-family: sans-serif; fill: rgb(0, 0, 0); opacity: 1;"
                     id="text5591">0.0</text>
                  <text
                     text-anchor="end"
                     transform="translate(-7,123)"
                     style="font-style: normal; font-variant: normal; font-weight: normal; font-stretch: normal; font-size: 10px; line-height: normal; font-family: sans-serif; fill: rgb(0, 0, 0); opacity: 1;"
                     id="text5593">0.2</text>
                  <text
                     text-anchor="end"
                     transform="translate(-7,93)"
                     style="font-style: normal; font-variant: normal; font-weight: normal; font-stretch: normal; font-size: 10px; line-height: normal; font-family: sans-serif; fill: rgb(0, 0, 0); opacity: 1;"
                     id="text5595">0.4</text>
                  <text
                     text-anchor="end"
                     transform="translate(-7,63)"
                     style="font-style: normal; font-variant: normal; font-weight: normal; font-stretch: normal; font-size: 10px; line-height: normal; font-family: sans-serif; fill: rgb(0, 0, 0); opacity: 1;"
                     id="text5597">0.6</text>
                  <text
                     text-anchor="end"
                     transform="translate(-7,33)"
                     style="font-style: normal; font-variant: normal; font-weight: normal; font-stretch: normal; font-size: 10px; line-height: normal; font-family: sans-serif; fill: rgb(0, 0, 0); opacity: 1;"
                     id="text5599">0.8</text>
                  <text
                     text-anchor="end"
                     transform="translate(-7,3)"
                     style="font-style: normal; font-variant: normal; font-weight: normal; font-stretch: normal; font-size: 10px; line-height: normal; font-family: sans-serif; fill: rgb(0, 0, 0); opacity: 1;"
                     id="text5601">1.0</text>
                </g>
                <g
                   class="mark-rule role-axis-domain"
                   style="pointer-events: none;"
                   id="g5607">
                  <line
                     transform="translate(0,300)"
                     x2="0"
                     y2="-300"
                     style="fill: none; stroke: rgb(136, 136, 136); stroke-width: 1; opacity: 1;"
                     id="line5605" />
                </g>
                <g
                   class="mark-text role-axis-title"
                   style="pointer-events: none;"
                   id="g5611">
                  <text
                     text-anchor="middle"
                     transform="translate(-34,150) rotate(-90) translate(0,-2)"
                     style="font-style: normal; font-variant: normal; font-weight: bold; font-stretch: normal; font-size: 11px; line-height: normal; font-family: sans-serif; fill: rgb(0, 0, 0); opacity: 1;"
                     id="text5609">Y</text>
                </g>
              </g>
            </g>
          </g>
        </g>
      </g>
    </g>
  </g>
</svg>
